/* XPM */
static char *blockSimple[] = {
/* columns rows colors chars-per-pixel */
"32 32 4 1 ",
"  c #a4a4a4",
". c #32313B",
"X c white",
"o c #717171",
/* pixels */
"         .            .         ",
"         .            .         ",
"         .            .         ",
"         .            .         ",
"................................",
"     .                    .     ",
"     .                    .     ",
"     .                    .     ",
"................................",
"         .            .         ",
"         .            .         ",
"         .            .         ",
"         .            .         ",
"................................",
"     .                    .     ",
"     .                    .     ",
"     .                    .     ",
"................................",
"         .            .         ",
"         .            .         ",
"         .            .         ",
"         .            .         ",
"................................",
"     .                    .     ",
"     .                    .     ",
"     .                    .     ",
"................................",
"         .            .         ",
"         .            .         ",
"         .            .         ",
"         .            .         ",
"................................"
};
